<?xml version="1.0" encoding="UTF-8" standalone="no"?>
<!DOCTYPE svg PUBLIC "-//W3C//DTD SVG 1.1//EN" "http://www.w3.org/Graphics/SVG/1.1/DTD/svg11.dtd">
<svg width="100%" height="100%" viewBox="0 0 32 32" version="1.1" xmlns="http://www.w3.org/2000/svg" xmlns:xlink="http://www.w3.org/1999/xlink" xml:space="preserve" xmlns:serif="http://www.serif.com/" style="fill-rule:evenodd;clip-rule:evenodd;stroke-linejoin:round;stroke-miterlimit:2;">
    <g>
        <rect x="0" y="0" width="32" height="32" style="fill:white;fill-rule:nonzero;"/>
        <path d="M15.2,9.3C19,9.3 21.6,12 21.6,16C21.6,16.8 21.5,17.5 21.3,18.1L20.5,17.1L14.5,17.1L18.2,22C17.3,22.4 16.3,22.7 15.2,22.7C11.4,22.7 8.8,20 8.8,16C8.8,12 11.5,9.3 15.2,9.3M15.2,4C8.1,4 3,9.1 3,16C3,22.9 8.1,28 15.2,28C17.6,28 19.7,27.3 21.5,26.2L22.5,27.6L29,27.6L25.3,22.7C26.6,20.8 27.3,18.7 27.3,16.1C27.5,9.1 22.4,4 15.2,4" style="fill:rgb(180,180,180);fill-rule:nonzero;"/>
    </g>
</svg>
